<svg width="64" height="61" viewBox="0 0 64 61" fill="none" xmlns="http://www.w3.org/2000/svg">
<g clip-path="url(#clip0_1_4)">
<path d="M76 15H16C14.8 15 14 15.7625 14 16.9062V58.8438C14 59.9875 14.8 60.75 16 60.75H76C77.2 60.75 78 59.9875 78 58.8438V16.9062C78 15.7625 77.2 15 76 15ZM34 51.2188V56.9375H28V51.2188H34ZM38 51.2188H44V56.9375H38V51.2188ZM48 51.2188H54V56.9375H48V51.2188ZM58 51.2188H64V56.9375H58V51.2188ZM58 24.5312V18.8125H64V24.5312H58ZM54 24.5312H48V18.8125H54V24.5312ZM44 24.5312H38V18.8125H44V24.5312ZM34 24.5312H28V18.8125H34V24.5312ZM74 24.5312H68V18.8125H74V24.5312ZM24 18.8125V24.5312H18V18.8125H24ZM18 51.2188H24V56.9375H18V51.2188ZM68 56.9375V51.2188H74V56.9375H68Z" fill="#FFF9F9"/>
</g>
<defs>
<clipPath id="clip0_1_4">
<rect width="64" height="61" fill="white"/>
</clipPath>
</defs>
</svg>
